# xmcd CD database file
#
# Track frame offsets:
#	150
#	13744
#	28636
#	41841
#	55823
#	70188
#	81678
#	93900
#	109768
#	128382
#	141725
#	156171
#	172704
#	186123
#
# Disc length: 2661 seconds
#
# Revision: 0
# Processed by: cddbd v1.4PL0 Copyright (c) Steve Scherf et al.
# Submitted via: CDex 1.51
#
DISCID=bb0a630e
DTITLE=Sul Matogrossense - Bailão 2000
DYEAR=2000
DGENRE=Country
TTITLE0=Grupo Zingaro - Capricha Gaiteiro
TTITLE1=Alma Serrana - Madrugada
TTITLE2=Som do Mato - Surungo do Candieiro
TTITLE3=Grupo Calendario - Fandango Bom
TTITLE4=Canto da Terra - Não Encosta a Barriginha
TTITLE5=Grupo Pantanal - Clareando Dia
TTITLE6=Iko Cordeiro - No Sarandeio
TTITLE7=Santo Chão - O Canto da Vaneira
TTITLE8=Estilo Nativo - Pentelhando no Fandago
TTITLE9=Ecos da Querencia - Andejo das Coxilhas
TTITLE10=Som do Mato - Batidão de Galpão
TTITLE11=Canto da Terra - Vaneira do Canto
TTITLE12=Alma Serrana - Bailanta do Povoado
TTITLE13=Grupo Zingaro - Vai e Vem
EXTD=YEAR: 2000
EXTT0=
EXTT1=
EXTT2=
EXTT3=
EXTT4=
EXTT5=
EXTT6=
EXTT7=
EXTT8=
EXTT9=
EXTT10=
EXTT11=
EXTT12=
EXTT13=
PLAYORDER=
